<svg xmlns="http://www.w3.org/2000/svg" xmlns:xlink="http://www.w3.org/1999/xlink" width="86" height="86" viewBox="0 0 86 86">
  <defs>
    <filter id="Ellipse_1" x="0" y="0" width="86" height="86" filterUnits="userSpaceOnUse">
      <feOffset input="SourceAlpha"/>
      <feGaussianBlur stdDeviation="6" result="blur"/>
      <feFlood flood-opacity="0.4"/>
      <feComposite operator="in" in2="blur"/>
      <feComposite in="SourceGraphic"/>
    </filter>
    <filter id="Polygon_1" x="16" y="11" width="61" height="65" filterUnits="userSpaceOnUse">
      <feOffset input="SourceAlpha"/>
      <feGaussianBlur stdDeviation="6" result="blur-2"/>
      <feFlood flood-opacity="0.4"/>
      <feComposite operator="in" in2="blur-2"/>
      <feComposite in="SourceGraphic"/>
    </filter>
  </defs>
  <g id="Component_1_1" data-name="Component 1 – 1" transform="translate(18 18)">
    <g transform="matrix(1, 0, 0, 1, -18, -18)" filter="url(#Ellipse_1)">
      <g id="Ellipse_1-2" data-name="Ellipse 1" transform="translate(18 18)" fill="none" stroke="#fff" stroke-width="2">
        <circle cx="25" cy="25" r="25" stroke="none"/>
        <circle cx="25" cy="25" r="24" fill="none"/>
      </g>
    </g>
    <g transform="matrix(1, 0, 0, 1, -18, -18)" filter="url(#Polygon_1)">
      <path id="Polygon_1-2" data-name="Polygon 1" d="M12.77,2.983a2,2,0,0,1,3.46,0L27.258,22a2,2,0,0,1-1.73,3H3.472a2,2,0,0,1-1.73-3Z" transform="translate(59 29) rotate(90)" fill="#fff"/>
    </g>
  </g>
</svg>
