<svg width="65" height="52" viewBox="0 0 65 52" fill="none" xmlns="http://www.w3.org/2000/svg">
<path d="M0.507812 51.2656V36.7148C0.507812 32.4831 1.32161 28.1211 2.94922 23.6289C4.57682 19.1367 6.72526 14.9049 9.39453 10.9336C12.0638 6.89714 14.9935 3.47917 18.1836 0.679688L31.2695 8.29688C28.9258 12.2031 26.9076 16.4023 25.2148 20.8945C23.5221 25.3867 22.6758 30.6602 22.6758 36.7148V51.2656H0.507812ZM33.7109 51.2656V36.7148C33.7109 32.4831 34.5247 28.1211 36.1523 23.6289C37.7799 19.1367 39.9284 14.9049 42.5977 10.9336C45.2669 6.89714 48.1966 3.47917 51.3867 0.679688L64.4727 8.29688C62.1289 12.2031 60.1107 16.4023 58.418 20.8945C56.7253 25.3867 55.8789 30.6602 55.8789 36.7148V51.2656H33.7109Z" fill="#000"/>
</svg>
